<svg width="31" height="31" viewBox="0 0 31 31" fill="none" xmlns="http://www.w3.org/2000/svg">
<g id="checked (1) 1" clip-path="url(#clip0_2_307)">
<g id="Group">
<g id="Group_2">
<path id="Vector" d="M29.5943 13.8571L27.5482 11.8114C27.0626 11.3258 26.6647 10.3662 26.6647 9.678V6.78488C26.6647 5.40863 25.5404 4.28434 24.1645 4.28361H21.2702C20.5828 4.28361 19.6221 3.88495 19.1364 3.39971L17.0907 1.35401C16.1187 0.381996 14.5272 0.381996 13.5552 1.35401L11.5095 3.40117C11.0235 3.88678 10.0616 4.28434 9.3757 4.28434H6.48257C5.10816 4.28434 3.9824 5.40863 3.9824 6.78488V9.67808C3.9824 10.3636 3.58454 11.3262 3.09886 11.8115L1.0528 13.8572C0.0800551 14.8292 0.0800551 16.4207 1.0528 17.3943L3.09886 19.44C3.58484 19.9256 3.9824 20.8879 3.9824 21.5734V24.4666C3.9824 25.8414 5.10816 26.9672 6.48257 26.9672H9.37577C10.0632 26.9672 11.0239 27.365 11.5096 27.8503L13.5553 29.8968C14.5273 30.868 16.1188 30.868 17.0908 29.8968L19.1365 27.8503C19.6226 27.3647 20.5829 26.9672 21.2703 26.9672H24.1646C25.5405 26.9672 26.6648 25.8414 26.6648 24.4666V21.5734C26.6648 20.8849 27.063 19.9253 27.5483 19.44L29.5944 17.3943C30.5656 16.4207 30.5656 14.8292 29.5943 13.8571ZM13.3385 21.2504L7.82249 15.7337L9.5903 13.9663L13.3389 17.7149L21.0554 10.0002L22.8228 11.7676L13.3385 21.2504Z" fill="#6DA544"/>
</g>
</g>
</g>
<defs>
<clipPath id="clip0_2_307">
<rect width="30" height="30" fill="white" transform="translate(0.322754 0.625)"/>
</clipPath>
</defs>
</svg>
