<svg width="256" height="208" viewBox="0 0 256 208" fill="none" xmlns="http://www.w3.org/2000/svg">
<path opacity="0.4" d="M155.991 131.137L54.0195 187.035L175.133 142.578L171.527 132.547L155.991 131.137Z" fill="#A5B7C6"/>
<path d="M158.314 138.302L157.944 133.295L159.272 132.907L163.737 135.537L178.866 128.767C178.866 128.767 181.433 126.165 184.975 126.734C184.975 126.734 193.371 125.803 191.266 127.43C188.88 129.273 172.16 136.603 172.16 136.603L166.846 137.841L166.484 140.299L165.246 141.185L161.947 141.284L158.558 140.317C158.558 140.317 157.474 140.516 157.989 139.82C158.504 139.124 158.314 138.293 158.314 138.293V138.302Z" fill="#8697A3"/>
<path d="M177.094 128.109L172.25 130.622L172.16 131.752L175.928 130.441L177.094 128.109Z" fill="#A5B7C6"/>
<path d="M161.098 138.834L161.586 137.587L153.56 137.849L151.934 138.834L157.998 139.819L160.664 139.087L161.116 138.825L161.098 138.834ZM179.083 131.531L176.218 132.896L171.301 134.975L170.669 134.604L173.371 130.817L159.534 129.227L156.01 131.134L166.439 134.261L165.96 134.432L165.029 135.933C165.029 135.933 164.098 136.376 163.954 137.469L161.631 138.888L161.83 139.448L163.683 138.743L163.664 138.77C163.222 139.448 162.562 139.945 161.794 140.18C161.667 140.108 161.55 140.009 161.523 139.873L158.576 140.316L161.794 144.609L163.583 143.832L163.782 141.238C163.782 141.238 163.131 140.921 162.978 140.108L162.435 140.226L165.508 138.987L165.951 139.991L164.713 140.714L165.038 141.934L167.126 141.789L167.713 140.316L168.039 140.226L168.228 139.629L170.967 138.409L172.413 139.503L172.44 139.484L175.16 142.566L177.781 141.337L177.528 137.596L177.926 135.255L181.586 133.691C181.586 133.691 188.563 130.022 190.606 128.187C190.606 128.187 191.247 127.699 191.293 127.41C191.293 127.41 186.051 128.576 179.101 131.513L179.083 131.531Z" fill="#28333A"/>
<path d="M177.094 128.109L175.196 130.143L176.028 130.929L177.6 129.366L177.094 128.109Z" fill="#28333A"/>
<path d="M163.755 134.48C163.755 134.48 167.849 130.928 171.184 129.69C173.796 128.714 174.166 129.111 174.166 129.111C174.166 129.111 175.188 130.386 166.539 134.588L164.234 135.646L164.306 136.387L163.538 136.793L162.743 135.402L162.209 134.507L162.914 134.082L163.764 134.489L163.755 134.48Z" fill="#28333A"/>
<path d="M169.476 138.907C169.476 138.907 173.145 136.44 175.956 135.699C178.767 134.958 178.432 135.5 178.432 135.5C178.432 135.5 179.146 136.63 171.726 139.242L169.756 139.883L169.675 140.805L168.436 140.706L168.608 139.937L167.569 138.925L168.825 138.491L169.476 138.898V138.907Z" fill="#28333A"/>
<path d="M170.551 132.111L173.353 130.818L175.196 130.141L176.028 130.927L169.602 134.036L170.551 132.111Z" fill="#28333A"/>
<path d="M178.866 128.757C178.866 128.757 182.481 127.239 184.975 126.724C184.975 126.724 182.002 125.739 178.866 128.757Z" fill="#28333A"/>
<path opacity="0.4" d="M129.583 96.7169L48.895 180.46L151.274 101.941L144.839 93.4453L129.583 96.7169Z" fill="#FF7F00"/>
<path d="M133.939 102.873L132.096 98.2009L133.253 97.4327L138.296 98.6166L150.722 87.6539C150.722 87.6539 152.394 84.4094 155.955 83.8943C155.955 83.8943 163.7 80.5052 162.173 82.6923C160.447 85.1596 146.664 97.1345 146.664 97.1345L141.956 99.9L142.344 102.358L141.423 103.578L138.305 104.663L134.78 104.753C134.78 104.753 133.804 105.268 134.093 104.446C134.382 103.623 133.948 102.891 133.948 102.891L133.939 102.873Z" fill="#8697A3"/>
<path d="M148.825 87.5469L144.957 91.3879L145.21 92.4995L148.409 90.1226L148.825 87.5469Z" fill="#A5B7C6"/>
<path d="M136.759 102.559L136.85 101.221L129.267 103.86L128.011 105.288L134.093 104.421L136.416 102.929L136.768 102.55L136.759 102.559ZM151.753 90.2315L149.421 92.3825L145.345 95.8348L144.631 95.6722L146.077 91.2527L132.394 93.8556L129.592 96.7296L140.483 96.6121L140.076 96.9194L139.633 98.6365C139.633 98.6365 138.874 99.3324 139.064 100.426L137.274 102.468L137.627 102.938L139.19 101.718V101.755C138.964 102.532 138.476 103.201 137.817 103.652C137.681 103.625 137.536 103.562 137.464 103.445L134.789 104.746L139.136 107.882L140.609 106.608L140.031 104.077C140.031 104.077 139.317 103.969 138.928 103.237L138.44 103.508L141.007 101.411L141.73 102.243L140.772 103.3L141.441 104.366L143.393 103.607L143.519 102.026L143.809 101.845V101.221L146.059 99.242L147.767 99.8566L147.794 99.8295L151.301 101.962L153.443 100.01L152.087 96.5127L151.771 94.1629L154.798 91.5871C154.798 91.5871 160.366 86.0019 161.766 83.6521C161.766 83.6521 162.227 82.9923 162.191 82.7031C162.191 82.7031 157.537 85.3783 151.78 90.2586L151.753 90.2315Z" fill="#28333A"/>
<path d="M148.825 87.5469L147.623 90.0503L148.653 90.5564L149.683 88.5952L148.825 87.5469Z" fill="#28333A"/>
<path d="M137.997 97.6032C137.997 97.6032 140.853 92.994 143.664 90.8159C145.869 89.1078 146.339 89.3699 146.339 89.3699C146.339 89.3699 147.695 90.2827 140.691 96.8712L138.802 98.5612L139.1 99.2481L138.485 99.8626L137.31 98.7781L136.533 98.0822L137.075 97.4677L138.006 97.6032H137.997Z" fill="#28333A"/>
<path d="M144.776 100.125C144.776 100.125 147.541 96.6815 150.009 95.1361C152.476 93.5906 152.313 94.2142 152.313 94.2142C152.313 94.2142 153.325 95.0818 147.026 99.7814L145.336 100.983L145.535 101.896L144.324 102.167L144.261 101.381L142.968 100.73L144.044 99.9351L144.785 100.134L144.776 100.125Z" fill="#28333A"/>
<path d="M143.773 93.3134L146.068 91.2438L147.623 90.0508L148.653 90.5569L143.447 95.4372L143.773 93.3134Z" fill="#28333A"/>
<path d="M150.713 87.6464C150.713 87.6464 153.714 85.1249 155.946 83.8868C155.946 83.8868 152.819 83.8325 150.713 87.6464Z" fill="#28333A"/>
<path opacity="0.4" d="M170.669 164.691L58.1045 193.856L186.421 180.489L185.391 169.879L170.669 164.691Z" fill="#058800"/>
<path d="M171.165 172.21L172.033 167.257L173.425 167.203L177.103 170.845L193.425 167.998C193.425 167.998 196.552 166.109 199.851 167.528C199.851 167.528 208.22 168.694 205.779 169.752C203.014 170.954 185.002 173.945 185.002 173.945L179.543 173.837L178.585 176.132L177.166 176.692L173.94 175.978L170.894 174.216C170.894 174.216 169.792 174.144 170.469 173.593C171.147 173.041 171.165 172.192 171.165 172.192V172.21Z" fill="#8697A3"/>
<path d="M191.871 166.941L186.566 168.189L186.195 169.264L190.163 168.921L191.871 166.941Z" fill="#A5B7C6"/>
<path d="M173.732 173.421L174.509 172.328L166.665 170.611L164.848 171.162L170.479 173.602L173.235 173.548L173.732 173.403V173.421ZM192.955 170.755L189.837 171.37L184.559 172.183L184.035 171.668L187.578 168.658L174.555 163.715L170.668 164.7L180.013 170.294L179.507 170.339L178.233 171.569C178.233 171.569 177.221 171.767 176.805 172.789L174.211 173.593L174.265 174.18L176.236 173.955L176.208 173.982C175.621 174.533 174.853 174.849 174.048 174.885C173.949 174.786 173.85 174.659 173.859 174.524L170.894 174.235L172.955 179.178L174.88 178.862L175.711 176.395C175.711 176.395 175.16 175.934 175.214 175.102L174.654 175.084L177.935 174.641L178.115 175.726L176.742 176.124V177.389L178.82 177.759L179.751 176.476H180.095L180.42 175.934L183.366 175.419L184.496 176.838H184.532L186.412 180.48L189.259 179.937L189.937 176.25L190.895 174.081L194.826 173.466C194.826 173.466 202.49 171.623 204.921 170.348C204.921 170.348 205.662 170.032 205.78 169.761C205.78 169.761 200.411 169.607 192.955 170.746V170.755Z" fill="#28333A"/>
<path d="M191.871 166.941L189.53 168.451L190.144 169.418L192.051 168.288L191.871 166.941Z" fill="#28333A"/>
<path d="M177.375 169.852C177.375 169.852 182.219 167.412 185.752 167.033C188.527 166.734 188.78 167.204 188.78 167.204C188.78 167.204 189.458 168.696 180.041 170.639L177.546 171.091L177.438 171.832L176.588 172.031L176.163 170.494L175.865 169.491L176.652 169.256L177.375 169.861V169.852Z" fill="#28333A"/>
<path d="M181.839 175.535C181.839 175.535 185.996 174.044 188.906 174.017C191.816 173.99 191.355 174.433 191.355 174.433C191.355 174.433 191.771 175.707 183.936 176.412L181.866 176.547L181.559 177.424L180.384 177.026L180.736 176.321L179.977 175.083L181.306 174.966L181.839 175.526V175.535Z" fill="#28333A"/>
<path d="M184.55 169.217L187.587 168.648L189.53 168.449L190.144 169.416L183.158 170.853L184.55 169.217Z" fill="#28333A"/>
<path d="M193.434 168.009C193.434 168.009 197.311 167.431 199.86 167.539C199.86 167.539 197.221 165.858 193.434 168.009Z" fill="#28333A"/>
<path d="M136.19 5.95347C135.955 5.97154 135.783 6.16133 135.792 6.39631L136.208 13.4457L136.624 6.39631C136.624 6.39631 136.624 6.36016 136.624 6.35112C136.606 6.11614 136.416 5.94443 136.181 5.95347H136.19ZM135.792 26.8666C135.792 26.8666 135.792 26.9028 135.792 26.9118C135.81 27.1468 136 27.3185 136.235 27.3095C136.47 27.2914 136.642 27.1016 136.633 26.8666L136.217 19.8172L135.801 26.8666H135.792ZM146.448 16.2112L139.398 16.6269L146.448 17.0427C146.448 17.0427 146.484 17.0427 146.493 17.0427C146.728 17.0246 146.9 16.8348 146.891 16.5998C146.872 16.3648 146.683 16.1931 146.448 16.2022V16.2112ZM125.977 16.2112C125.977 16.2112 125.941 16.2112 125.932 16.2112C125.697 16.2293 125.525 16.4191 125.535 16.6541C125.553 16.889 125.742 17.0607 125.977 17.0517L133.027 16.636L125.977 16.2202V16.2112ZM143.745 9.68602C143.745 9.68602 143.773 9.65891 143.782 9.64987C143.935 9.47815 143.917 9.21606 143.745 9.06242C143.574 8.90878 143.312 8.92686 143.158 9.09857L138.467 14.3766L143.745 9.68602ZM128.68 23.5679C128.68 23.5679 128.653 23.595 128.643 23.604C128.49 23.7757 128.508 24.0378 128.68 24.1915C128.851 24.3451 129.113 24.327 129.267 24.1553L133.958 18.8773L128.68 23.5679ZM138.467 18.8773L143.158 24.1553C143.158 24.1553 143.185 24.1824 143.194 24.1915C143.366 24.3451 143.628 24.327 143.782 24.1553C143.935 23.9836 143.917 23.7215 143.745 23.5679L138.467 18.8773ZM133.967 14.3766L129.276 9.09857C129.276 9.09857 129.249 9.07146 129.24 9.06242C129.068 8.90878 128.806 8.92686 128.652 9.09857C128.499 9.27029 128.517 9.53238 128.689 9.68602L133.967 14.3766ZM139.055 9.921C139.118 9.69506 138.983 9.46911 138.757 9.40585C138.531 9.34259 138.305 9.47815 138.241 9.70409L136.967 14.5212L139.028 9.98426C139.028 9.98426 139.046 9.93907 139.055 9.921ZM133.379 23.3419C133.316 23.5679 133.452 23.7938 133.677 23.8571C133.903 23.9203 134.129 23.7848 134.193 23.5588L135.467 18.7418L133.406 23.2787C133.406 23.2787 133.388 23.3238 133.379 23.3419ZM142.932 19.4648C143.158 19.528 143.384 19.3925 143.447 19.1665C143.51 18.9406 143.375 18.7146 143.149 18.6514L138.332 17.3771L142.869 19.4377C142.869 19.4377 142.914 19.4557 142.932 19.4648ZM129.511 13.7891C129.285 13.7259 129.059 13.8614 128.996 14.0874C128.933 14.3133 129.068 14.5392 129.294 14.6025L134.111 15.8768L129.574 13.8162C129.574 13.8162 129.529 13.7982 129.511 13.7891ZM142.552 13.1655L138.251 15.6689L142.914 13.9247C142.914 13.9247 142.959 13.9066 142.977 13.8976C143.176 13.7801 143.248 13.527 143.131 13.3192C143.013 13.1203 142.76 13.048 142.552 13.1655ZM129.466 19.3654C129.267 19.4828 129.195 19.7359 129.312 19.9438C129.43 20.1426 129.683 20.2149 129.891 20.0974L134.193 17.594L129.529 19.3382C129.529 19.3382 129.484 19.3563 129.466 19.3654ZM137.175 18.6514L138.919 23.3148C138.919 23.3148 138.937 23.36 138.946 23.3781C139.064 23.5769 139.317 23.6492 139.525 23.5317C139.724 23.4142 139.796 23.1612 139.678 22.9533L137.175 18.6514ZM135.25 14.6025L133.506 9.93907C133.506 9.93907 133.488 9.89389 133.479 9.87581C133.361 9.67698 133.108 9.60468 132.9 9.72217C132.692 9.83966 132.629 10.0927 132.747 10.3006L135.25 14.6025Z" fill="#282057"/>
<path d="M219.318 3.59512C218.821 3.62223 218.441 4.05604 218.469 4.55311L219.372 19.7816L220.276 4.55311C220.276 4.55311 220.276 4.48081 220.276 4.44466C220.249 3.94759 219.815 3.568 219.318 3.59512ZM218.469 48.7744C218.469 48.7744 218.469 48.8467 218.469 48.8828C218.496 49.3799 218.93 49.7595 219.427 49.7324C219.924 49.7052 220.303 49.2714 220.276 48.7744L219.372 33.5459L218.469 48.7744ZM241.478 25.7645L226.25 26.6683L241.478 27.572C241.478 27.572 241.551 27.572 241.587 27.572C242.084 27.5449 242.464 27.1111 242.436 26.614C242.409 26.117 241.976 25.7374 241.478 25.7645ZM197.257 25.7645C197.257 25.7645 197.185 25.7645 197.149 25.7645C196.652 25.7916 196.272 26.2254 196.299 26.7225C196.326 27.2196 196.76 27.5991 197.257 27.572L212.486 26.6683L197.257 25.7645ZM235.64 11.6748C235.64 11.6748 235.694 11.6206 235.712 11.6025C236.047 11.2319 236.011 10.6535 235.64 10.3282C235.27 9.99378 234.691 10.0299 234.366 10.4005L224.235 21.806L235.64 11.6748ZM203.096 41.6617C203.096 41.6617 203.041 41.716 203.023 41.734C202.689 42.1046 202.725 42.683 203.096 43.0083C203.466 43.3427 204.044 43.3066 204.37 42.936L214.501 31.5305L203.096 41.6617ZM224.235 31.5305L234.366 42.936C234.366 42.936 234.42 42.9903 234.438 43.0083C234.809 43.3427 235.387 43.3066 235.712 42.936C236.047 42.5655 236.011 41.9871 235.64 41.6617L224.235 31.5305ZM214.51 21.806L204.379 10.4005C204.379 10.4005 204.325 10.3462 204.307 10.3282C203.936 9.99378 203.358 10.0299 203.032 10.4005C202.698 10.771 202.734 11.3494 203.105 11.6748L214.51 21.806ZM225.509 12.1719C225.635 11.6838 225.346 11.1868 224.867 11.0602C224.388 10.9337 223.891 11.2229 223.756 11.7019L221.008 22.1042L225.464 12.3074C225.464 12.3074 225.5 12.208 225.518 12.1628L225.509 12.1719ZM213.245 41.1647C213.118 41.6527 213.408 42.1498 213.887 42.2763C214.375 42.4028 214.863 42.1136 214.998 41.6346L217.746 31.2323L213.29 41.0291C213.29 41.0291 213.254 41.1285 213.236 41.1737L213.245 41.1647ZM233.878 32.7958C234.366 32.9223 234.854 32.6331 234.989 32.1541C235.116 31.6661 234.827 31.169 234.348 31.0425L223.945 28.295L233.742 32.7506C233.742 32.7506 233.842 32.7868 233.887 32.8048L233.878 32.7958ZM204.885 20.5317C204.397 20.4052 203.909 20.6944 203.773 21.1734C203.647 21.6614 203.936 22.1494 204.415 22.285L214.817 25.0324L205.021 20.5769C205.021 20.5769 204.921 20.5407 204.876 20.5227L204.885 20.5317ZM233.055 19.176L223.756 24.5896L233.833 20.8119C233.878 20.7938 233.923 20.7757 233.968 20.7486C234.402 20.4955 234.547 19.9442 234.294 19.5104C234.04 19.0766 233.489 18.932 233.055 19.1851V19.176ZM204.795 32.5789C204.361 32.8319 204.216 33.3832 204.469 33.817C204.722 34.2509 205.274 34.3955 205.707 34.1424L215.007 28.7288L204.93 32.5066C204.93 32.5066 204.84 32.5427 204.795 32.5698V32.5789ZM221.46 31.0334L225.238 41.1104C225.256 41.1556 225.274 41.2008 225.301 41.246C225.554 41.6798 226.105 41.8244 226.539 41.5714C226.973 41.3183 227.118 40.767 226.865 40.3332L221.451 31.0334H221.46ZM217.312 22.285L213.534 12.208C213.516 12.1628 213.498 12.1176 213.471 12.0724C213.218 11.6386 212.666 11.494 212.233 11.7471C211.799 12.0001 211.654 12.5514 211.907 12.9852L217.321 22.285H217.312Z" fill="#058800"/>
<path d="M105.281 41.2282C104.892 41.2553 104.585 41.5897 104.612 41.9784L105.326 53.9713L106.04 41.9784C106.04 41.9784 106.04 41.9241 106.04 41.897C106.013 41.5084 105.679 41.2011 105.29 41.2282H105.281ZM104.612 76.7914C104.612 76.7914 104.612 76.8456 104.612 76.8728C104.639 77.2614 104.974 77.5687 105.362 77.5415C105.751 77.5144 106.058 77.18 106.031 76.7914L105.317 64.7984L104.603 76.7914H104.612ZM122.724 58.6799L110.731 59.3939L122.724 60.1079C122.724 60.1079 122.778 60.1079 122.805 60.1079C123.194 60.0808 123.501 59.7464 123.474 59.3578C123.447 58.9692 123.112 58.6619 122.724 58.689V58.6799ZM87.9198 58.6799C87.9198 58.6799 87.8656 58.6799 87.8384 58.6799C87.4498 58.7071 87.1425 59.0415 87.1696 59.4301C87.1967 59.8187 87.5312 60.126 87.9198 60.0989L99.9127 59.3849L87.9198 58.6709V58.6799ZM118.133 47.5907C118.133 47.5907 118.178 47.5546 118.196 47.5275C118.458 47.2292 118.431 46.7864 118.133 46.5243C117.834 46.2622 117.392 46.2893 117.129 46.5876L109.158 55.571L118.142 47.5998L118.133 47.5907ZM92.5109 71.1971C92.5109 71.1971 92.4657 71.2333 92.4476 71.2604C92.1855 71.5586 92.2127 72.0015 92.5109 72.2635C92.8091 72.5256 93.252 72.4985 93.5141 72.2003L101.485 63.2168L92.5018 71.1881L92.5109 71.1971ZM109.149 63.2259L117.12 72.2093C117.12 72.2093 117.157 72.2545 117.184 72.2726C117.482 72.5347 117.925 72.5076 118.187 72.2093C118.449 71.9111 118.422 71.4682 118.124 71.2061L109.14 63.2349L109.149 63.2259ZM101.494 55.571L93.5231 46.5876C93.5231 46.5876 93.487 46.5424 93.4599 46.5243C93.1616 46.2622 92.7188 46.2893 92.4567 46.5876C92.1946 46.8858 92.2217 47.3286 92.5199 47.5907L101.503 55.562L101.494 55.571ZM110.152 47.9884C110.252 47.6088 110.026 47.2202 109.646 47.1117C109.267 47.0123 108.878 47.2383 108.77 47.6179L106.601 55.806L110.107 48.0969C110.107 48.0969 110.134 48.0245 110.143 47.9884H110.152ZM100.5 70.8085C100.401 71.1881 100.627 71.5767 101.006 71.6851C101.386 71.7846 101.774 71.5586 101.883 71.179L104.052 62.9909L100.545 70.7C100.545 70.7 100.518 70.7723 100.509 70.8085H100.5ZM116.741 64.22C117.12 64.3194 117.509 64.0935 117.618 63.7139C117.717 63.3343 117.491 62.9457 117.111 62.8373L108.923 60.6682L116.632 64.1748C116.632 64.1748 116.705 64.202 116.741 64.211V64.22ZM93.9208 54.5678C93.5412 54.4684 93.1526 54.6943 93.0441 55.0739C92.9447 55.4535 93.1706 55.8421 93.5502 55.9506L101.738 58.1196L94.0292 54.613C94.0292 54.613 93.9569 54.5859 93.9208 54.5769V54.5678ZM116.099 53.5014L108.779 57.7581L116.705 54.7847C116.705 54.7847 116.777 54.7576 116.813 54.7305C117.157 54.5317 117.265 54.0979 117.075 53.7544C116.876 53.411 116.443 53.2935 116.099 53.4923V53.5014ZM93.8485 64.0483C93.505 64.2471 93.3966 64.6809 93.5864 65.0244C93.7852 65.3678 94.219 65.4853 94.5624 65.2865L101.883 61.0297L93.9569 64.0031C93.9569 64.0031 93.8846 64.0302 93.8485 64.0574V64.0483ZM106.962 62.8373L109.935 70.7633C109.935 70.7633 109.963 70.8356 109.99 70.8717C110.189 71.2152 110.622 71.3236 110.966 71.1338C111.309 70.935 111.418 70.5012 111.228 70.1578L106.971 62.8373H106.962ZM103.7 55.9506L100.726 48.0245C100.726 48.0245 100.699 47.9522 100.672 47.9161C100.473 47.5727 100.039 47.4552 99.6958 47.654C99.3524 47.8528 99.244 48.2866 99.4337 48.6301L103.69 55.9506H103.7Z" fill="#FF7F00"/>
<path d="M41.3759 29.4424C41.638 29.1984 41.647 28.7826 41.403 28.5205L33.8837 20.5132L40.4089 29.352C40.4089 29.352 40.4451 29.3972 40.4541 29.4153C40.6981 29.6774 41.1138 29.6864 41.3759 29.4424ZM21.0231 4.06464C21.0231 4.06464 20.987 4.01945 20.9779 4.00137C20.7339 3.73928 20.3182 3.73024 20.0561 3.97426C19.794 4.21828 19.785 4.63401 20.029 4.8961L27.5483 12.9035L21.0231 4.06464ZM18.8993 27.3999L26.9066 19.8805L18.0678 26.4057C18.0678 26.4057 18.0226 26.4419 18.0045 26.4509C17.7424 26.6949 17.7334 27.1107 17.9774 27.3728C18.2214 27.6349 18.6372 27.6439 18.8993 27.3999ZM43.3642 7.01995C43.3642 7.01995 43.4094 6.9838 43.4275 6.97476C43.6896 6.73075 43.6986 6.31501 43.4546 6.05292C43.2106 5.79083 42.7948 5.78179 42.5327 6.02581L34.5254 13.5451L43.3642 7.01995ZM28.6238 32.5062C28.6238 32.5062 28.6238 32.5604 28.6238 32.5875C28.6147 32.949 28.8949 33.2472 29.2564 33.2563C29.6179 33.2653 29.9162 32.9851 29.9252 32.6236L30.2686 21.6429L28.6238 32.5062ZM32.8082 0.910495C32.8082 0.910495 32.8082 0.856269 32.8082 0.829156C32.8173 0.467649 32.5371 0.169407 32.1756 0.160369C31.8141 0.151331 31.5158 0.431499 31.5068 0.793005L31.1634 11.7738L32.8082 0.910495ZM25.786 16.2564L14.9227 14.6116C14.9227 14.6116 14.8685 14.6116 14.8414 14.6116C14.4798 14.6025 14.1816 14.8827 14.1726 15.2442C14.1635 15.6057 14.4437 15.904 14.8052 15.913L25.786 16.2564ZM35.6551 17.1512L46.5184 18.796C46.5184 18.796 46.5726 18.796 46.5997 18.796C46.9612 18.8051 47.2594 18.5249 47.2685 18.1634C47.2775 17.8019 46.9974 17.5036 46.6358 17.4946L35.6551 17.1512ZM34.0102 27.5445C34.1639 27.8698 34.5525 28.0144 34.8779 27.8608C35.2032 27.7072 35.3478 27.3185 35.1942 26.9932L31.9225 19.9709L33.9741 27.4451C33.9741 27.4451 33.9922 27.5174 34.0102 27.5445ZM27.4308 5.85409C27.2772 5.52874 26.8886 5.38414 26.5632 5.53778C26.2378 5.69142 26.0932 6.08003 26.2469 6.40539L29.5185 13.4277L27.467 5.95351C27.467 5.95351 27.4489 5.88121 27.4308 5.85409ZM19.8753 19.989C19.55 20.1426 19.4054 20.5313 19.559 20.8566C19.7127 21.182 20.1013 21.3266 20.4266 21.1729L27.4489 17.9013L19.9748 19.9528C19.9748 19.9528 19.9024 19.98 19.8753 19.989ZM41.5657 13.4096C41.8911 13.2559 42.0357 12.8673 41.882 12.542C41.7284 12.2166 41.3398 12.072 41.0144 12.2256L33.9922 15.4973L41.4663 13.4457C41.4663 13.4457 41.5386 13.4277 41.5657 13.4096ZM26.6084 27.1468L29.2564 19.8715L25.4245 26.6046C25.4245 26.6046 25.3883 26.6678 25.3793 26.704C25.2527 27.0384 25.4335 27.4179 25.7679 27.5445C26.1023 27.671 26.4819 27.4902 26.6084 27.1559V27.1468ZM36.0618 6.70363C36.1883 6.3602 36.0076 5.98966 35.6732 5.86313C35.3388 5.7366 34.9592 5.91736 34.8327 6.25175L32.1846 13.5271L36.0166 6.79401C36.0166 6.79401 36.0527 6.73075 36.0618 6.6946V6.70363ZM27.5573 15.2352L20.8243 11.4032C20.8243 11.4032 20.761 11.3671 20.7249 11.358C20.3905 11.2315 20.0109 11.4123 19.8844 11.7466C19.7578 12.0901 19.9386 12.4606 20.273 12.5871L27.5483 15.2352H27.5573ZM33.8837 18.1634L40.6168 21.9954C40.6168 21.9954 40.68 22.0315 40.7162 22.0405C41.0506 22.1671 41.4302 21.9863 41.5567 21.6519C41.6832 21.3175 41.5025 20.9379 41.1681 20.8114L33.8927 18.1634H33.8837Z" fill="#282057"/>
<path d="M18.4565 97.4976C18.6282 97.3349 18.6372 97.0638 18.4745 96.883L13.4948 91.5779L17.8148 97.4343C17.8148 97.4343 17.8329 97.4614 17.8509 97.4705C18.0136 97.6422 18.2848 97.6512 18.4655 97.4886L18.4565 97.4976ZM4.97228 80.6785C4.97228 80.6785 4.95421 80.6514 4.93613 80.6424C4.77345 80.4707 4.50232 80.4616 4.32156 80.6243C4.14081 80.787 4.14082 81.0581 4.3035 81.2389L9.28324 86.544L4.96324 80.6876L4.97228 80.6785ZM3.5624 96.1419L8.8675 91.1622L3.01111 95.4822C3.01111 95.4822 2.984 95.5003 2.97496 95.5184C2.80325 95.681 2.7942 95.9522 2.95688 96.1329C3.11956 96.3137 3.39068 96.3137 3.57144 96.151L3.5624 96.1419ZM19.7669 82.6307C19.7669 82.6307 19.794 82.6126 19.8031 82.5945C19.9748 82.4318 19.9838 82.1607 19.8212 81.9799C19.6585 81.8082 19.3873 81.7992 19.2066 81.9619L13.9015 86.9416L19.7579 82.6216L19.7669 82.6307ZM9.99721 99.522C9.99721 99.522 9.99721 99.5582 9.99721 99.5763C9.99721 99.8112 10.178 100.01 10.413 100.019C10.6479 100.028 10.8468 99.8384 10.8558 99.6034L11.0817 92.3281L9.99721 99.5311V99.522ZM12.7627 78.5908C12.7627 78.5908 12.7627 78.5547 12.7627 78.5366C12.7627 78.3016 12.582 78.1028 12.347 78.0938C12.112 78.0938 11.9132 78.2745 11.9042 78.5095L11.6782 85.7848L12.7627 78.5908ZM8.10834 88.7582L0.914376 87.6737C0.914376 87.6737 0.878214 87.6737 0.860139 87.6737C0.625159 87.6737 0.42634 87.8544 0.417302 88.0894C0.408264 88.3244 0.598048 88.5232 0.833027 88.5322L8.10834 88.7582ZM14.6426 89.3547L21.8456 90.4392C21.8456 90.4392 21.8817 90.4392 21.8998 90.4392C22.1348 90.4392 22.3336 90.2584 22.3427 90.0235C22.3427 89.7885 22.1619 89.5897 21.9269 89.5806L14.6516 89.3547H14.6426ZM13.5581 96.2414C13.6575 96.4583 13.9196 96.5486 14.1365 96.4492C14.3534 96.3498 14.4438 96.0877 14.3443 95.8708L12.1753 91.2164L13.5309 96.1691C13.5309 96.1691 13.549 96.2143 13.5581 96.2414ZM9.19286 81.8715C9.09345 81.6546 8.83136 81.5642 8.61445 81.6636C8.39755 81.763 8.30718 82.0251 8.40659 82.242L10.5756 86.8964L9.21997 81.9438C9.21997 81.9438 9.2019 81.8986 9.19286 81.8715ZM4.186 91.2435C3.9691 91.343 3.87873 91.605 3.97814 91.8219C4.07756 92.0389 4.33965 92.1292 4.55655 92.0298L9.21094 89.8608L4.25831 91.2164C4.25831 91.2164 4.21312 91.2345 4.186 91.2435ZM18.5559 86.8783C18.7728 86.7789 18.8632 86.5168 18.7638 86.2999C18.6643 86.083 18.4022 85.9927 18.1853 86.0921L13.5309 88.2611L18.4836 86.9055C18.4836 86.9055 18.5288 86.8874 18.5559 86.8783ZM8.64156 95.9793L10.3949 91.1532L7.85529 95.6178C7.85529 95.6178 7.83722 95.663 7.82818 95.681C7.74684 95.907 7.86432 96.151 8.09027 96.2323C8.31621 96.3137 8.56022 96.1962 8.64156 95.9702V95.9793ZM14.9047 82.4318C14.986 82.2059 14.8685 81.9619 14.6426 81.8805C14.4166 81.7992 14.1726 81.9167 14.0913 82.1426L12.338 86.9687L14.8776 82.5041C14.8776 82.5041 14.8956 82.4589 14.9047 82.4409V82.4318ZM9.26516 88.0894L4.80056 85.5498C4.80056 85.5498 4.75538 85.5317 4.7373 85.5227C4.51136 85.4414 4.26734 85.5589 4.186 85.7848C4.10467 86.0107 4.22215 86.2548 4.44809 86.3361L9.27421 88.0894H9.26516ZM13.4586 90.0325L17.9232 92.5721C17.9232 92.5721 17.9684 92.5902 17.9865 92.5992C18.2125 92.6805 18.4565 92.563 18.5378 92.3371C18.6191 92.1112 18.5017 91.8671 18.2757 91.7858L13.4496 90.0325H13.4586Z" fill="#058800"/>
<path d="M228.166 112.723C228.374 112.533 228.383 112.208 228.193 112L222.274 105.692L227.407 112.651C227.407 112.651 227.434 112.687 227.443 112.696C227.633 112.904 227.958 112.913 228.166 112.723ZM212.143 92.7408C212.143 92.7408 212.115 92.7046 212.106 92.6956C211.917 92.4877 211.591 92.4787 211.383 92.6685C211.176 92.8583 211.166 93.1836 211.356 93.3915L217.276 99.6998L212.143 92.7408ZM210.471 111.114L216.779 105.195L209.82 110.328C209.82 110.328 209.784 110.355 209.775 110.364C209.567 110.554 209.558 110.879 209.748 111.087C209.937 111.295 210.263 111.304 210.471 111.114ZM229.721 95.0725C229.721 95.0725 229.757 95.0454 229.766 95.0363C229.974 94.8465 229.983 94.5212 229.793 94.3133C229.603 94.1055 229.278 94.0964 229.07 94.2862L222.762 100.206L229.721 95.0725ZM218.116 115.136C218.116 115.136 218.116 115.181 218.116 115.199C218.116 115.48 218.333 115.724 218.614 115.733C218.894 115.733 219.138 115.516 219.147 115.236L219.418 106.595L218.125 115.145L218.116 115.136ZM221.406 90.2645C221.406 90.2645 221.406 90.2193 221.406 90.2012C221.406 89.921 221.189 89.677 220.909 89.668C220.629 89.668 220.385 89.8849 220.376 90.165L220.105 98.805L221.397 90.2554L221.406 90.2645ZM215.875 102.348L207.325 101.055C207.325 101.055 207.28 101.055 207.262 101.055C206.982 101.055 206.738 101.272 206.729 101.552C206.729 101.833 206.946 102.077 207.226 102.086L215.866 102.357L215.875 102.348ZM223.638 103.053L232.188 104.345C232.188 104.345 232.233 104.345 232.251 104.345C232.532 104.345 232.776 104.128 232.785 103.848C232.785 103.568 232.568 103.324 232.288 103.315L223.648 103.044L223.638 103.053ZM222.346 111.241C222.464 111.494 222.771 111.611 223.033 111.494C223.286 111.376 223.403 111.069 223.286 110.807L220.71 105.276L222.328 111.16C222.328 111.16 222.346 111.214 222.355 111.241H222.346ZM217.167 94.1687C217.05 93.9157 216.743 93.7982 216.481 93.9157C216.219 94.0332 216.11 94.3404 216.228 94.6025L218.803 100.134L217.186 94.2501C217.186 94.2501 217.168 94.1958 217.158 94.1687H217.167ZM211.221 105.294C210.968 105.412 210.85 105.719 210.968 105.981C211.085 106.234 211.392 106.351 211.655 106.234L217.186 103.658L211.302 105.276C211.302 105.276 211.248 105.294 211.221 105.303V105.294ZM228.293 100.115C228.546 99.998 228.663 99.6907 228.546 99.4286C228.428 99.1756 228.121 99.0581 227.859 99.1756L222.328 101.751L228.212 100.134C228.212 100.134 228.266 100.115 228.293 100.106V100.115ZM216.517 110.925L218.604 105.195L215.586 110.491C215.586 110.491 215.559 110.545 215.55 110.572C215.45 110.843 215.586 111.132 215.857 111.232C216.128 111.331 216.417 111.196 216.517 110.925ZM223.964 94.8375C224.063 94.5664 223.928 94.2772 223.657 94.1778C223.385 94.0783 223.096 94.2139 222.997 94.485L220.909 100.215L223.928 94.9188C223.928 94.9188 223.955 94.8646 223.964 94.8375ZM217.267 101.552L211.971 98.5339C211.971 98.5339 211.917 98.5068 211.889 98.4978C211.618 98.3983 211.329 98.5339 211.23 98.805C211.13 99.0762 211.266 99.3654 211.537 99.4648L217.267 101.552ZM222.247 103.857L227.543 106.876C227.543 106.876 227.597 106.903 227.624 106.912C227.895 107.011 228.184 106.876 228.284 106.605C228.383 106.333 228.248 106.044 227.977 105.945L222.247 103.857Z" fill="#282057"/>
<path d="M247.733 202.613C248.103 202.27 248.121 201.692 247.769 201.321L237.222 190.087L246.368 202.487C246.368 202.487 246.413 202.541 246.44 202.568C246.784 202.939 247.362 202.957 247.733 202.613ZM219.192 167.023C219.192 167.023 219.146 166.969 219.119 166.942C218.776 166.571 218.197 166.553 217.827 166.897C217.456 167.24 217.438 167.818 217.791 168.189L228.338 179.423L219.192 167.023ZM216.218 199.748L227.452 189.201L215.052 198.348C215.052 198.348 214.998 198.393 214.971 198.42C214.6 198.763 214.582 199.342 214.935 199.712C215.287 200.083 215.857 200.101 216.227 199.748H216.218ZM250.516 171.162C250.516 171.162 250.57 171.117 250.598 171.09C250.968 170.747 250.986 170.168 250.634 169.798C250.29 169.427 249.712 169.409 249.341 169.761L238.107 180.308L250.507 171.162H250.516ZM229.847 206.906C229.847 206.906 229.847 206.979 229.838 207.015C229.82 207.521 230.218 207.946 230.724 207.955C231.23 207.973 231.655 207.575 231.664 207.069L232.152 191.669L229.847 206.906ZM235.703 162.604C235.703 162.604 235.703 162.531 235.712 162.495C235.731 161.989 235.333 161.564 234.827 161.555C234.321 161.537 233.896 161.935 233.887 162.441L233.399 177.841L235.703 162.604ZM225.852 184.122L210.615 181.818C210.615 181.818 210.543 181.818 210.506 181.809C210 181.791 209.576 182.188 209.567 182.694C209.548 183.2 209.946 183.625 210.452 183.634L225.852 184.122ZM239.689 185.379L254.927 187.683C254.927 187.683 254.999 187.683 255.035 187.692C255.541 187.71 255.966 187.313 255.975 186.807C255.993 186.3 255.595 185.876 255.089 185.867L239.689 185.379ZM237.384 199.956C237.601 200.417 238.144 200.616 238.605 200.399C239.065 200.182 239.264 199.64 239.047 199.179L234.456 189.328L237.33 199.803C237.339 199.848 237.366 199.902 237.384 199.947V199.956ZM228.157 169.536C227.94 169.075 227.398 168.876 226.937 169.093C226.476 169.31 226.277 169.852 226.494 170.313L231.085 180.164L228.211 169.689C228.202 169.644 228.175 169.59 228.157 169.545V169.536ZM217.565 189.364C217.104 189.581 216.905 190.123 217.122 190.584C217.339 191.045 217.881 191.244 218.342 191.027L228.193 186.436L217.718 189.31C217.673 189.319 217.619 189.346 217.574 189.364H217.565ZM247.986 180.137C248.447 179.92 248.645 179.378 248.428 178.917C248.212 178.456 247.669 178.257 247.208 178.474L237.357 183.065L247.832 180.191C247.877 180.182 247.931 180.155 247.977 180.137H247.986ZM227.009 199.396L230.724 189.192L225.346 198.637C225.346 198.637 225.301 198.727 225.283 198.772C225.111 199.251 225.355 199.776 225.834 199.947C226.313 200.119 226.837 199.875 227.009 199.396ZM240.267 170.738C240.439 170.259 240.195 169.734 239.716 169.563C239.237 169.391 238.713 169.635 238.541 170.114L234.827 180.317L240.204 170.873C240.204 170.873 240.249 170.783 240.267 170.738ZM228.338 182.703L218.893 177.326C218.893 177.326 218.803 177.281 218.758 177.263C218.279 177.091 217.755 177.335 217.583 177.814C217.411 178.293 217.655 178.817 218.134 178.989L228.338 182.703ZM237.213 186.807L246.657 192.184C246.657 192.184 246.747 192.229 246.793 192.247C247.272 192.419 247.796 192.175 247.968 191.696C248.139 191.217 247.895 190.693 247.416 190.521L237.213 186.807Z" fill="#FF7F00"/>
</svg>
